<?xml version="1.0" encoding="UTF-8"?>
<svg id="Layer_2" data-name="Layer 2" xmlns="http://www.w3.org/2000/svg" viewBox="0 0 751.93 154.24">
  <defs>
    <style>
      .cls-1 {
        fill: #000;
        stroke-width: 0px;
      }
    </style>
  </defs>
  <g id="Layer_1-2" data-name="Layer 1">
    <g>
      <path class="cls-1" d="M59.31,123.03H0V0h59.31c19.83,0,35.53,5.45,47.1,16.34,11.57,10.9,17.35,25.95,17.35,45.17s-5.78,34.28-17.35,45.17c-11.57,10.9-27.27,16.34-47.1,16.34ZM59.31,24.79h-31.77v73.45h31.77c12.97,0,22.06-2.54,27.27-7.62,5.2-5.08,7.8-14.78,7.8-29.1s-2.6-24.02-7.8-29.1c-5.2-5.08-14.29-7.62-27.27-7.62Z"/>
      <path class="cls-1" d="M184.54,124.86c-15.92,0-28.49-4.01-37.73-12.03-9.24-8.02-13.86-19.92-13.86-35.71,0-14.57,4.68-26.19,14.05-34.89,9.36-8.69,21.7-13.04,37-13.04s27.48,3.89,36.54,11.66c9.06,7.78,13.59,18.76,13.59,32.96,0,1.72-.25,4.65-.74,8.81h-74.92c.37,7.22,2.45,12.39,6.24,15.52,3.79,3.12,10.1,4.68,18.91,4.68,7.96,0,13.62-1.01,16.99-3.03,3.37-2.02,5.05-5.05,5.05-9.09v-1.84h27.54v2.02c0,10.04-4.47,18.21-13.4,24.51-8.94,6.31-20.69,9.46-35.25,9.46ZM201.34,54.81c-3.86-2.75-9.82-4.13-17.9-4.13s-14.05,1.41-17.9,4.22c-3.86,2.82-6.09,7.23-6.7,13.22h48.84c-.37-6.12-2.48-10.56-6.33-13.31Z"/>
      <path class="cls-1" d="M294.9,124.86c-15.79,0-28.37-4.31-37.73-12.95-9.36-8.63-14.05-20.23-14.05-34.8s4.68-26.35,14.05-34.98c9.37-8.63,21.94-12.95,37.73-12.95,14.81,0,26.81,3.64,35.99,10.93,9.18,7.28,13.77,16.86,13.77,28.74v2.57h-27.36v-1.47c0-10.65-7.65-15.98-22.95-15.98-8.33,0-14.39,1.78-18.18,5.32-3.8,3.55-5.69,9.49-5.69,17.81s1.9,14.23,5.69,17.72c3.79,3.49,9.85,5.23,18.18,5.23,15.3,0,22.95-5.33,22.95-15.97v-1.47h27.36v2.57c0,11.88-4.59,21.46-13.77,28.74-9.18,7.29-21.18,10.93-35.99,10.93Z"/>
      <path class="cls-1" d="M384.14,123.03h-27.54V31.03h25.52v24.42h1.65c1.35-7.96,4.62-14.32,9.82-19.1,5.2-4.77,12.21-7.16,21.03-7.16,9.79,0,17.08,2.94,21.85,8.81,4.77,5.88,7.16,13.65,7.16,23.32v15.24h-27.54v-9.55c0-5.14-1.17-8.84-3.49-11.11-2.33-2.26-6.24-3.4-11.75-3.4-6,0-10.28,1.41-12.85,4.22-2.57,2.82-3.86,7.16-3.86,13.04v53.25Z"/>
      <path class="cls-1" d="M471.17,154.24h-15.06v-24.97h22.58c5.88,0,9.73-1.96,11.57-5.88l-44.99-92.36h31.22l19.46,42.05,7.71,21.67h1.84l7.34-21.85,17.44-41.87h30.67l-45.54,98.61c-4.29,9.42-9.73,15.88-16.34,19.37-6.61,3.49-15.92,5.23-27.91,5.23Z"/>
      <path class="cls-1" d="M595.12,154.24h-27.54V31.03h25.52v25.16h1.84c3.43-18,15.67-26.99,36.72-26.99,13.96,0,24.79,4.29,32.5,12.85,7.71,8.57,11.57,20.26,11.57,35.07s-3.76,26.47-11.29,34.98c-7.53,8.51-18.15,12.76-31.86,12.76-10.41,0-18.64-2.36-24.7-7.07-6.06-4.71-9.89-11.23-11.48-19.56h-1.29v56ZM595.12,78.41c0,7.59,2.23,13.04,6.7,16.34,4.47,3.31,11.17,4.96,20.11,4.96s15.64-1.71,19.74-5.14c4.1-3.43,6.15-9.24,6.15-17.44s-2.05-14.02-6.15-17.44c-4.1-3.43-10.62-5.14-19.56-5.14s-15.97,1.74-20.38,5.23c-4.41,3.49-6.61,9.21-6.61,17.17v1.47Z"/>
      <path class="cls-1" d="M751.93,123.03h-22.77c-23.02,0-34.52-11.08-34.52-33.24v-35.99h-14.51v-22.77h14.51V13.22h27.54v17.81h29.75v22.77h-29.75v32.87c0,4.53.95,7.59,2.85,9.18,1.9,1.59,5.35,2.39,10.37,2.39h16.53v24.79Z"/>
    </g>
  </g>
</svg>